<svg 
  fill="#7FE9DE" 
  viewBox="-2.4 -2.4 28.80 28.80" 
  id="file-code-4" 
  data-name="Flat Color" 
  xmlns="http://www.w3.org/2000/svg" 
  class="icon flat-color" 
  stroke="#7FE9DE" 
  stroke-width="0.4800000000000001"
>
  <g id="SVGRepo_bgCarrier" stroke-width="0"></g>
  <g 
    id="SVGRepo_tracerCarrier" 
    stroke-linecap="round" 
    stroke-linejoin="round" 
    stroke="#CCCCCC" 
    stroke-width="0.048"
  ></g>
  <g id="SVGRepo_iconCarrier">
    <path 
      id="primary" 
      d="M2,20a2,2,0,0,0,2,2h6.81a6,6,0,0,1,4-8.88,5.91,5.91,0,0,1,3.17.23V7a1,1,0,0,0-.29-.7l-4-4A1,1,0,0,0,13,2H4A2,2,0,0,0,2,4Z" 
      style="fill: #15141b;"
    >
    </path>
    <path 
      id="secondary" 
      d="M19,22a1,1,0,0,1-.71-.29,1,1,0,0,1,0-1.42L19.59,19l-1.3-1.29a1,1,0,0,1,1.42-1.42l2,2a1,1,0,0,1,0,1.42l-2,2A1,1,0,0,1,19,22Zm-3.29-.29a1,1,0,0,0,0-1.42L14.41,19l1.3-1.29a1,1,0,0,0-1.42-1.42l-2,2a1,1,0,0,0,0,1.42l2,2a1,1,0,0,0,1.42,0ZM11,12a1,1,0,0,0-1-1H6a1,1,0,0,0,0,2h4A1,1,0,0,0,11,12Zm4-4a1,1,0,0,0-1-1H6A1,1,0,0,0,6,9h8A1,1,0,0,0,15,8Z" 
      style="fill: #7FE9DE;"
    >
    </path>
  </g>
</svg>